Coordinates
version=1
nRows=18
nColumns=22
inDegrees=yes

Units are S.I. units (second, meters, Newtons, ...)
If the header above contains a line with 'inDegrees', this indicates whether rotational values are in degrees (yes) or radians (no).

endheader
time	pelvis_tilt	pelvis_list	pelvis_rotation	pelvis_tx	pelvis_ty	pelvis_tz	hip_flexion_r	hip_adduction_r	hip_rotation_r	knee_angle_r	ankle_angle_r	subtalar_angle_r	hip_flexion_l	hip_adduction_l	hip_rotation_l	knee_angle_l	ankle_angle_l	subtalar_angle_l	lumbar_extension	lumbar_bending	lumbar_rotation
      5.98000000	    -10.21605772	     -0.42661048	    -13.09882784	      1.17177547	      0.97522462	      0.47288072	      9.45837473	      4.84685840	      0.45383370	    -36.80203779	     15.17474836	      0.63540631	     29.56284455	      0.46786532	     -3.72401677	    -17.90311366	      8.94399707	      8.43013708	      4.12830390	      2.80773974	      3.20051727
      5.99000000	    -10.26156970	     -0.26502617	    -12.99903634	      1.17683858	      0.97568814	      0.47232343	      9.85827140	      4.46973300	     -0.07234792	    -37.76303526	     14.41201615	      0.84256839	     29.26463165	      0.74777812	     -3.71826152	    -17.76430419	      9.29501206	      8.60191264	      4.25310069	      2.53348690	      3.16947133
      6.00000000	    -10.29973605	     -0.11111158	    -12.90597953	      1.18176541	      0.97611365	      0.47181197	     10.27772491	      4.09150672	     -0.60611375	    -38.76413840	     13.62983946	      1.00182308	     28.97819082	      1.01524510	     -3.70358771	    -17.65225829	      9.64632401	      8.77271121	      4.35608000	      2.25889707	      3.13931820
      6.01000000	    -10.32882454	      0.03866367	    -12.81741102	      1.18655303	      0.97650517	      0.47131974	     10.71850789	      3.70747377	     -1.13854971	    -39.81245761	     12.83542142	      1.11712460	     28.69976903	      1.27598367	     -3.68660569	    -17.55855326	     10.00305705	      8.95135059	      4.43297453	      1.98496014	      3.11611076
      6.02000000	    -10.36270787	      0.18504329	    -12.74368837	      1.19119131	      0.97684391	      0.47087729	     11.20014916	      3.32139960	     -1.66342182	    -40.91364281	     12.06209945	      1.17500231	     28.44294665	      1.52073699	     -3.67837864	    -17.48422969	     10.38496985	      9.19287856	      4.50311499	      1.71182991	      3.11018541
      6.03000000	    -10.34470530	      0.32947699	    -12.68127948	      1.19567445	      0.97723524	      0.47047083	     11.66286477	      2.92547026	     -2.14777680	    -42.06076344	     11.27142825	      1.22144925	     28.13951231	      1.76921163	     -3.65109844	    -17.41031239	     10.72354896	      9.34803758	      4.49327805	      1.42400166	      3.09815780
      6.04000000	    -10.32380390	      0.48771219	    -12.63868308	      1.20001006	      0.97758014	      0.47009495	     12.16737711	      2.50570420	     -2.60866204	    -43.26412658	     10.54375844	      1.22558973	     27.84086330	      2.02077578	     -3.63850388	    -17.33120855	     11.07624647	      9.54545035	      4.47139706	      1.11993850	      3.11569383
      6.05000000	    -10.28794525	      0.65508522	    -12.61642950	      1.20419469	      0.97790721	      0.46974940	     12.69591889	      2.06985767	     -3.02438861	    -44.50604643	      9.87426662	      1.21060893	     27.53221441	      2.27433746	     -3.63692049	    -17.24522393	     11.43500044	      9.75876416	      4.42267065	      0.80256300	      3.15083649
      6.06000000	    -10.23798504	      0.84257823	    -12.61784891	      1.20823219	      0.97821218	      0.46943261	     13.24969361	      1.60528805	     -3.39063131	    -45.77707988	      9.30460107	      1.18369669	     27.20965266	      2.53915909	     -3.65249917	    -17.13781518	     11.78905692	      9.99583240	      4.35046264	      0.46042789	      3.20703145
      6.07000000	    -10.17057269	      1.05327246	    -12.64330140	      1.21214629	      0.97850333	      0.46913671	     13.81670424	      1.10896045	     -3.70195144	    -47.04950115	      8.86563621	      1.16129286	     26.86488621	      2.82002194	     -3.69462966	    -17.00133631	     12.14490497	     10.25628127	      4.25693425	      0.09224490	      3.28089404
      6.08000000	    -10.08757314	      1.28859320	    -12.70111910	      1.21597171	      0.97878461	      0.46886540	     14.38843620	      0.57582471	     -3.96573728	    -48.29200167	      8.60608128	      1.13853523	     26.48829789	      3.11468271	     -3.77847675	    -16.81670326	     12.51762528	     10.62926395	      4.15192783	     -0.30098750	      3.40273582
      6.09000000	     -9.97640285	      1.56078206	    -12.76961445	      1.21967274	      0.97906699	      0.46858859	     14.95329700	     -0.00502252	     -4.17484275	    -49.48563716	      8.52549695	      1.14688821	     26.08412382	      3.44835108	     -3.87844785	    -16.60457235	     12.85767306	     10.93144215	      4.01521941	     -0.73853633	      3.48160113
      6.10000000	     -9.84792383	      1.85586137	    -12.86595180	      1.22330877	      0.97935635	      0.46832257	     15.50383744	     -0.62574268	     -4.35516635	    -50.58605123	      8.67487090	      1.15817111	     25.63846904	      3.79806947	     -4.01865417	    -16.33026119	     13.20569428	     11.34038053	      3.86906483	     -1.19761181	      3.60185343
      6.11000000	     -9.67851894	      2.13855093	    -12.98277132	      1.22688818	      0.97972318	      0.46809052	     15.99076958	     -1.24643560	     -4.50721951	    -51.54409887	      9.01270534	      1.21212763	     25.12442585	      4.13336649	     -4.20217631	    -16.00637437	     13.59685150	     12.05562721	      3.67572165	     -1.64658696	      3.71796314
      6.12000000	     -9.53429143	      2.43718121	    -13.09453061	      1.23036857	      0.98003316	      0.46782167	     16.49872321	     -1.89502852	     -4.67133211	    -52.36695108	      9.56039013	      1.20167778	     24.62342035	      4.48489701	     -4.37401282	    -15.63461867	     13.95521288	     12.62382276	      3.51783163	     -2.10119074	      3.81138333
      6.13000000	     -9.40672543	      2.73096713	    -13.20503449	      1.23371431	      0.98031801	      0.46755668	     17.01228444	     -2.53357302	     -4.82246598	    -53.03611149	     10.27246420	      1.16042078	     24.12866616	      4.83014466	     -4.51462005	    -15.22777126	     14.29467153	     13.20096501	      3.37274302	     -2.54503540	      3.87879224
      6.14000000	     -9.27891023	      2.97270619	    -13.29982504	      1.23696522	      0.98063031	      0.46730320	     17.47854437	     -3.12314437	     -5.01117244	    -53.51274561	     11.14329662	      1.14642874	     23.63659965	      5.12134706	     -4.69048548	    -14.83833674	     14.66305223	     13.96715297	      3.21379445	     -2.92987615	      3.91961407
      6.15000000	     -9.19859534	      3.17945634	    -13.37912671	      1.24007922	      0.98090629	      0.46707219	     17.95942146	     -3.64893418	     -5.19296634	    -53.80653907	     12.09447001	      1.16943532	     23.18540025	      5.36779968	     -4.85036894	    -14.43083862	     15.01471554	     14.72368118	      3.09477002	     -3.26388270	      3.89645067
